<svg xmlns="http://www.w3.org/2000/svg" xmlns:xlink="http://www.w3.org/1999/xlink" viewBox="0 0 538.5 129.25"><defs><style>.cls-1{fill:url(#linear-gradient);}</style><linearGradient id="linear-gradient" x1="-0.71" y1="10.38" x2="199.4" y2="121.41" gradientUnits="userSpaceOnUse"><stop offset="0" stop-color="#96f"/><stop offset="0.05" stop-color="#955dfb"/><stop offset="0.13" stop-color="#8845ee"/><stop offset="0.23" stop-color="#751edb"/><stop offset="0.3" stop-color="#60c"/><stop offset="0.37" stop-color="#5a0cce"/><stop offset="0.5" stop-color="#3c2dd4"/><stop offset="0.68" stop-color="#0a62de"/><stop offset="0.72" stop-color="#006de0"/><stop offset="0.76" stop-color="#0672e2"/><stop offset="0.83" stop-color="#1681e7"/><stop offset="0.89" stop-color="#309aef"/><stop offset="0.97" stop-color="#54bcfa"/><stop offset="1" stop-color="#6cf"/></linearGradient></defs><g id="Layer_2" data-name="Layer 2"><path class="cls-1" d="M153.8,116.49l-22.54-12.7c-3.9-2.13-.48-8.22,3.36-6l22.54,12.7C161.06,112.64,157.65,118.73,153.8,116.49ZM181.05,124l-12.25-6.89c-3.84-2.25-7.26,3.84-3.36,6l12.24,6.89C181.53,132.19,185,126.1,181.05,124Zm16.81-7.9-39-22a3.43,3.43,0,0,0-3.37,6l39,22C198.34,124.28,201.75,118.19,197.86,116.07Zm-52-39,10,5.66c3.84,2.24,7.26-3.85,3.36-6l-10-5.66a3.43,3.43,0,1,0-3.36,6Zm22.66,13.14,22.84,12.86c3.85,2.25,7.27-3.84,3.37-6L171.86,84.27C168,82,164.59,88.12,168.49,90.25ZM139.15,91.4,91,119.22a3.41,3.41,0,0,1-1.76.44H89a3.42,3.42,0,0,1-1.57-.48L38.93,91.87a2.83,2.83,0,0,1-.28-.2,3.06,3.06,0,0,1-1.5-2.79L37,68.33c-.1-4.44,6.88-4.51,6.86-.06L44,83.75l42.9-25.36-.42-48L73.27,18.21c-3.79,2.31-7.35-3.7-3.49-5.9L87.72,1.7a3.16,3.16,0,0,1,2.44-.43,3.7,3.7,0,0,1,1.5.46l.13.05,47.13,26.56A3.19,3.19,0,0,1,140.44,30a3.55,3.55,0,0,1,.3,1.48l.5,56.47a3.36,3.36,0,0,1-.78,2.18A3.32,3.32,0,0,1,139.15,91.4Zm-7.23-3.73L90.39,64.27,48.18,89.21l41,23.12Zm2.41-6.51-.43-47.78L93.24,10.47l.43,47.78Zm-100-38.95L11.83,29.51c-3.85-2.24-7.27,3.85-3.37,6L31,48.18C34.85,50.43,38.27,44.33,34.37,42.21ZM46,48.77c-3.85-2.24-7.27,3.85-3.37,6l12.24,6.9c3.85,2.24,7.27-3.85,3.37-6Zm29.05-1-39-22a3.43,3.43,0,0,0-3.37,6l39.05,22C75.55,56,79,49.88,75.06,47.76ZM22.64,18.23,5.38,8.5c-3.84-2.24-7.26,3.85-3.36,6L19.28,24.2C23.12,26.44,26.54,20.35,22.64,18.23ZM23,8.81l10,5.65c3.84,2.24,7.27-3.84,3.36-6l-10-5.66a3.43,3.43,0,0,0-3.36,6ZM45.7,21.94,68.53,34.81c3.85,2.24,7.27-3.85,3.37-6L49.06,16C45.21,13.73,41.8,19.82,45.7,21.94Z" transform="translate(-0.29 -1.18)"/></g><g id="Layer_5" data-name="Layer 5"><path d="M264.45,68h-15v8.93H266l-.71,4.81H243.81v-31h21.33v4.81h-15.7v7.57h15Z" transform="translate(-0.29 -1.18)"/><path d="M293.5,50.78v31h-5.81v-31Z" transform="translate(-0.29 -1.18)"/><path d="M301.26,81.71v-31h7.32c4.07,7.06,12.09,20.58,13.61,24h.08C321.94,71.24,322,66,322,61V50.78h5.31v31h-6.92c-3.6-6.31-12.26-21.47-13.89-25h-.07c.21,3,.26,9,.26,14.54V81.75Z" transform="translate(-0.29 -1.18)"/><path d="M342.47,81.75l-11.05-31h6.24l4.9,14.69c1.47,4.41,2.72,8.39,3.41,11.44h.09c.64-2.76,2-6.89,3.57-11.36l5.13-14.81h6l-11.37,31Z" transform="translate(-0.29 -1.18)"/><path d="M385.47,68h-15v8.93H387l-.69,4.81H364.82v-31h21.35v4.81H370.44v7.57h15Z" transform="translate(-0.29 -1.18)"/><path d="M392.07,81.71v-31h7.32c4.07,7.06,12.09,20.58,13.61,24h.08c-.33-3.49-.32-8.7-.32-13.78V50.78h5.32v31h-6.92c-3.6-6.31-12.26-21.47-13.89-25h-.07c.21,3,.26,9,.26,14.54V81.75Z" transform="translate(-0.29 -1.18)"/><path d="M432.34,55.59h-9.61V50.78h25v4.81h-9.6V81.75h-5.83Z" transform="translate(-0.29 -1.18)"/><path d="M479.08,65.68c0,8.58-5.05,16.07-15,16.07-9.51,0-14.6-7.06-14.6-15.94s5.47-15.94,15-15.94C473.43,49.84,479.08,56.27,479.08,65.68Zm-23.63,0c0,6.31,2.93,11.28,8.84,11.28,6.39,0,8.75-5.31,8.75-11.21,0-6.13-2.69-11.1-8.84-11.1S455.45,59.43,455.45,65.68Z" transform="translate(-0.29 -1.18)"/><path d="M490.81,68.93V81.75h-5.68v-31h13.09c6.63,0,10.18,3.62,10.18,8.43a7.26,7.26,0,0,1-4.78,7.31c1.89.61,4.16,2.3,4.16,7.79v1.45a23.6,23.6,0,0,0,.43,6h-5.54c-.55-1.34-.6-3.69-.6-6.84v-.53c0-3.79-1-5.45-6.19-5.45Zm0-4.69h6c4,0,5.68-1.53,5.68-4.42s-1.82-4.36-5.42-4.36h-6.31Z" transform="translate(-0.29 -1.18)"/><path d="M521.82,81.71V70.63a1.71,1.71,0,0,0-.24-.94L510.82,50.75h6.59c2.53,4.8,6.13,11.62,7.58,14.76,1.34-3,5.15-10.1,7.7-14.76h6.1l-11,18.94a1.43,1.43,0,0,0-.23.92V81.75Z" transform="translate(-0.29 -1.18)"/><path d="M282.41,63.6v4.9H270.17V63.6Z" transform="translate(-0.29 -1.18)"/></g></svg>