<svg id="Layer_2" data-name="Layer 2" xmlns="http://www.w3.org/2000/svg" xmlns:xlink="http://www.w3.org/1999/xlink" viewBox="0 0 267.56 208.28"><defs><style>.cls-1{fill:url(#linear-gradient);}</style><linearGradient id="linear-gradient" x1="8.56" y1="51.77" x2="277.23" y2="200.84" gradientUnits="userSpaceOnUse"><stop offset="0" stop-color="#96f"/><stop offset="0.05" stop-color="#955dfb"/><stop offset="0.13" stop-color="#8845ee"/><stop offset="0.23" stop-color="#751edb"/><stop offset="0.3" stop-color="#60c"/><stop offset="0.37" stop-color="#5a0cce"/><stop offset="0.5" stop-color="#3c2dd4"/><stop offset="0.68" stop-color="#0a62de"/><stop offset="0.72" stop-color="#006de0"/><stop offset="0.76" stop-color="#0672e2"/><stop offset="0.83" stop-color="#1681e7"/><stop offset="0.89" stop-color="#309aef"/><stop offset="0.97" stop-color="#54bcfa"/><stop offset="1" stop-color="#6cf"/></linearGradient></defs><path class="cls-1" d="M216,194.24l-30.27-17.06c-5.23-2.84-.65-11,4.52-8l30.26,17.05C225.76,189.07,221.17,197.25,216,194.24Zm36.58,10L236.15,195c-5.16-3-9.76,5.16-4.52,8l16.44,9.26C253.23,215.31,257.83,207.14,252.59,204.29Zm22.57-10.62-52.42-29.53a4.6,4.6,0,1,0-4.52,8l52.42,29.53C275.81,204.71,280.39,196.52,275.16,193.67Zm-69.86-52.3,13.48,7.6c5.16,3,9.76-5.17,4.52-8l-13.48-7.6a4.6,4.6,0,1,0-4.52,8ZM235.73,159l30.67,17.28c5.16,3,9.75-5.17,4.51-8L240.25,151C235.09,148,230.5,156.15,235.73,159Zm-39.39,1.56L131.65,197.9a4.62,4.62,0,0,1-2.37.6H129a4.56,4.56,0,0,1-2.1-.65L61.78,161.19c-.13-.08-.25-.18-.37-.27a4.11,4.11,0,0,1-2-3.75l-.25-27.59c-.14-6,9.24-6.06,9.2-.08l.19,20.78,57.6-34-.57-64.4L107.89,62.28c-5.09,3.11-9.88-5-4.69-7.92l24.09-14.23a4.26,4.26,0,0,1,3.28-.59,5,5,0,0,1,2,.62l.17.08L196,75.89a4.26,4.26,0,0,1,2,2.25,4.52,4.52,0,0,1,.4,2l.68,75.81a4.56,4.56,0,0,1-1.05,2.93A4.51,4.51,0,0,1,196.34,160.56Zm-9.72-5-55.75-31.41L74.2,157.62l55.07,31Zm3.24-8.74-.57-64.14L134.7,51.9l.57,64.14ZM55.65,94.51,25.39,77.46c-5.16-3-9.75,5.17-4.52,8l30.27,17C56.3,105.54,60.89,97.36,55.65,94.51Zm15.63,8.81c-5.16-3-9.75,5.16-4.51,8L83.2,120.6c5.16,3,9.76-5.17,4.52-8Zm39-1.35L57.87,72.43a4.6,4.6,0,0,0-4.52,8L105.77,110C110.94,113,115.52,104.81,110.29,102ZM39.91,62.31,16.74,49.25c-5.16-3-9.76,5.17-4.52,8L35.39,70.33C40.56,73.34,45.15,65.16,39.91,62.31Zm.52-12.65,13.48,7.6c5.16,3,9.76-5.17,4.52-8L45,41.64a4.6,4.6,0,0,0-4.52,8ZM70.86,67.3l30.67,17.27c5.16,3,9.75-5.16,4.52-8L75.38,59.28C70.22,56.27,65.63,64.45,70.86,67.3Z" transform="translate(-9.91 -39.43)"/><path d="M44.73,236.47H32.84v7.07h13.1l-.56,3.81h-17V222.82H45.27v3.81H32.84v6H44.73Z" transform="translate(-9.91 -39.43)"/><path d="M58.51,236.3v3.88H48.82V236.3Z" transform="translate(-9.91 -39.43)"/><path d="M67.73,222.82v24.53h-4.6V222.82Z" transform="translate(-9.91 -39.43)"/><path d="M73.88,247.35V222.82h5.8c3.22,5.59,9.57,16.3,10.78,19h.06c-.26-2.76-.25-6.89-.25-10.91v-8.06h4.21v24.53H89c-2.85-5-9.71-17-11-19.78h-.06c.17,2.37.21,7.11.21,11.51v8.27Z" transform="translate(-9.91 -39.43)"/><path d="M106.52,247.35l-8.75-24.53h4.94l3.88,11.64c1.16,3.49,2.15,6.64,2.7,9.06h.07c.51-2.19,1.62-5.46,2.83-9l4.06-11.73H121l-9,24.53Z" transform="translate(-9.91 -39.43)"/><path d="M140.57,236.47h-11.9v7.07h13.1l-.55,3.81h-17V222.82h16.91v3.81H128.67v6h11.9Z" transform="translate(-9.91 -39.43)"/><path d="M145.8,247.35V222.82h5.8c3.22,5.59,9.57,16.3,10.78,19h.06c-.26-2.76-.25-6.89-.25-10.91v-8.06h4.21v24.53h-5.48c-2.85-5-9.71-17-11-19.78h-.06c.17,2.37.21,7.11.21,11.51v8.27Z" transform="translate(-9.91 -39.43)"/><path d="M177.69,226.63h-7.61v-3.81h19.83v3.81h-7.6v20.72h-4.62Z" transform="translate(-9.91 -39.43)"/><path d="M214.71,235c0,6.8-4,12.73-11.88,12.73-7.53,0-11.56-5.59-11.56-12.62s4.33-12.63,11.89-12.63C210.24,222.46,214.71,227.55,214.71,235ZM196,235c0,5,2.32,8.94,7,8.94,5.06,0,6.93-4.21,6.93-8.88,0-4.86-2.13-8.79-7-8.79S196,230.05,196,235Z" transform="translate(-9.91 -39.43)"/><path d="M224,237.2v10.15H219.5V222.82h10.37c5.25,0,8.06,2.87,8.06,6.68a5.75,5.75,0,0,1-3.78,5.79c1.49.48,3.29,1.82,3.29,6.17v1.15a18.76,18.76,0,0,0,.34,4.74h-4.39c-.43-1.06-.47-2.92-.47-5.42v-.42c0-3-.79-4.31-4.9-4.31Zm0-3.72h4.75c3.2,0,4.5-1.21,4.5-3.5s-1.44-3.45-4.29-3.45h-5Z" transform="translate(-9.91 -39.43)"/><path d="M248.56,247.35v-8.78a1.3,1.3,0,0,0-.19-.74l-8.52-15h5.22c2,3.8,4.85,9.2,6,11.69,1.06-2.41,4.08-8,6.1-11.69H262l-8.68,15a1.09,1.09,0,0,0-.18.73v8.82Z" transform="translate(-9.91 -39.43)"/></svg>